# xmcd
# 
# Track frame offsets:
#     183
#     18880
#     42363
#     59778
#     76518
#     94260
#     115203
#     141893
#     165220
#     185770
#     201173
#     215673
#     232340
#     251120
#     268745
#     287430
#     307258
# 
# Disc length: 4380
# 
# Revision: 13
# Processed by: cddbd v1.5.2PL0 Copyright (c) Steve Scherf et al.
# Submitted via: fre:ac v1.0.31
# 
DISCID=00111a11
DTITLE=Paul McCartney - All The Best!
DYEAR=1987
DGENRE=Rock
TTITLE0=Jet
TTITLE1=Band On The Run
TTITLE2=Coming Up
TTITLE3=Ebony And Ivory
TTITLE4=Listen To What The Man Said
TTITLE5=No More Lonely Nights
TTITLE6=Silly Love Songs
TTITLE7=Let 'Em In
TTITLE8=C Moon
TTITLE9=Pipes Of Peace
TTITLE10=Live And Let Die
TTITLE11=Another Day
TTITLE12=Once Upon A Long Ago
TTITLE13=Say Say Say
TTITLE14=My Love
TTITLE15=We All Stand Together
TTITLE16=Mull Of Kintyre
EXTD=Parlophone\nYear: 1987\nCatalog Number: C2 48507\nImport\nProduced by: Paul McCartney, George Martin, Linda McCartney\n YEAR: 1987
EXTT0=
EXTT1=
EXTT2=
EXTT3=
EXTT4=
EXTT5=
EXTT6=
EXTT7=
EXTT8=
EXTT9=
EXTT10=
EXTT11=
EXTT12=
EXTT13=
EXTT14=
EXTT15=
EXTT16=
PLAYORDER=
